{
  "asset": {
    "version": "2.0",
    "generator": "THREE.GLTFExporter"
  },
  "scenes": [
    {
      "nodes": [
        0
      ]
    }
  ],
  "scene": 0,
  "nodes": [
    {
      "children": [
        4
      ],
      "matrix": [
        0.01,
        0,
        0,
        0,
        0,
        0.01,
        0,
        0,
        0,
        0,
        0.01,
        0,
        0,
        0,
        0,
        1
      ]
    },
    {
      "matrix": [
        0.645396642412507,
        -0.3274174437297551,
        0.6911007424971684,
        0,
        0.0023269648727369217,
        0.905327106318726,
        0.42650324672983875,
        0,
        -0.764888452718325,
        -0.2735997048530936,
        0.5846748275903251,
        0,
        -10.912795948178568,
        99.16558442165918,
        -115.76573674124236,
        1.0000000000000004
      ],
      "name": "Cube 2",
      "mesh": 0
    },
    {
      "matrix": [
        1,
        0,
        0,
        0,
        0,
        1,
        -6.394884621840902e-17,
        0,
        0,
        6.394884621840902e-17,
        1,
        0,
        20.731409528184194,
        34.8287680073456,
        999.9999999999977,
        1
      ],
      "camera": 0
    },
    {
      "matrix": [
        1,
        0,
        0,
        0,
        0,
        1,
        0,
        0,
        0,
        0,
        1,
        0,
        0,
        1,
        0,
        1
      ],
      "name": "Default Ambient Light"
    },
    {
      "name": "Scene 1",
      "children": [
        1,
        2,
        3
      ]
    }
  ],
  "bufferViews": [
    {
      "buffer": 0,
      "byteOffset": 0,
      "byteLength": 958464,
      "target": 34962,
      "byteStride": 12
    },
    {
      "buffer": 0,
      "byteOffset": 958464,
      "byteLength": 958464,
      "target": 34962,
      "byteStride": 12
    },
    {
      "buffer": 0,
      "byteOffset": 1916928,
      "byteLength": 479232,
      "target": 34963
    }
  ],
  "buffers": [
    {
      "byteLength": 2396160,
      "uri": "data:application/octet-stream;base64,"
    }
  ],
  "accessors": [
    {
      "bufferView": 0,
      "componentType": 5126,
      "count": 79872,
      "max": [
        64.81248474121094,
        62.936912536621094,
        62.43276596069336
      ],
      "min": [
        -65.17704772949219,
        -62.523685455322266,
        -63.982521057128906
      ],
      "type": "VEC3"
    },
    {
      "bufferView": 1,
      "componentType": 5126,
      "count": 79872,
      "max": [
        1,
        1,
        1
      ],
      "min": [
        -1,
        -1,
        -1
      ],
      "type": "VEC3"
    },
    {
      "bufferView": 2,
      "componentType": 5125,
      "count": 119808,
      "max": [
        79871
      ],
      "min": [
        0
      ],
      "type": "SCALAR"
    }
  ],
  "meshes": [
    {
      "primitives": [
        {
          "mode": 4,
          "attributes": {
            "POSITION": 0,
            "NORMAL": 1
          },
          "extras": {
            "type": "SubdivGeometry",
            "parameters": {
              "width": 130.9330291748047,
              "height": 126.48624420166016,
              "depth": 127.27387237548828
            }
          },
          "indices": 2
        }
      ]
    }
  ],
  "cameras": [
    {
      "type": "perspective",
      "perspective": {
        "aspectRatio": 1.7297297297297298,
        "yfov": 0.7853981633974483,
        "zfar": 100000,
        "znear": 70
      }
    }
  ]
}